<?xml version="1.0" encoding="UTF-8"?> <!-- Generator: Adobe Illustrator 26.0.1, SVG Export Plug-In . SVG Version: 6.00 Build 0) --> <svg xmlns="http://www.w3.org/2000/svg" xmlns:xlink="http://www.w3.org/1999/xlink" version="1.1" id="Layer_1" x="0px" y="0px" viewBox="0 0 500 106" style="enable-background:new 0 0 500 106;" xml:space="preserve"> <style type="text/css"> .st0{fill:#BB8C1C;} </style> <g> <g> <path class="st0" d="M173.23,75.44c-0.74,0-1.66-0.06-2.57-0.24c-1.29-0.31-3.07-1.18-5.39-6.68 c-3.92-9.3-13.72-34.29-15.19-37.66c-0.61-1.41-0.98-1.96-1.53-1.96c-0.61,0-0.97,0.67-1.72,2.45l-15.37,38.47 c-1.23,3.06-2.39,5.14-5.21,5.51c-0.49,0.06-1.35,0.13-1.9,0.12c-0.49,0-0.74,0.12-0.74,0.5c0,0.48,0.37,0.61,1.16,0.61 c3.18,0,6.55-0.18,7.22-0.18c1.9,0,4.53,0.18,6.5,0.18c0.68,0,1.04-0.13,1.04-0.61c0-0.37-0.19-0.5-0.93-0.5h-0.92 c-1.9,0-2.45-0.79-2.45-1.89c0-0.74,0.3-2.21,0.92-3.74l3.3-8.76c0.12-0.36,0.24-0.49,0.56-0.49l13.65,0 c0.31,0,0.49,0.13,0.62,0.43l4.9,12.99c0.3,0.73-0.12,1.29-0.55,1.41c-0.61,0.06-0.86,0.18-0.86,0.56c0,0.43,0.73,0.43,1.84,0.48 c4.9,0.12,9.37,0.12,11.57,0.13c2.26,0,2.82-0.13,2.82-0.61C174.02,75.51,173.72,75.44,173.23,75.44z M152.53,57.5h-11.27 c-0.25,0-0.3-0.18-0.25-0.42l5.64-15.07c0.07-0.25,0.18-0.55,0.37-0.55c0.18,0,0.24,0.3,0.3,0.55l5.52,15.13 C152.89,57.32,152.83,57.5,152.53,57.5z"></path> <path class="st0" d="M252.41,75.94c0-0.31-0.31-0.49-0.98-0.49c-0.92,0-2.27-0.12-3.12-0.24c-1.83-0.25-2.2-1.6-2.38-3.31 c-0.31-2.63-0.31-7.47-0.31-13.11V48.01c0-9.31,0-11.03,0.12-12.99c0.12-2.14,0.61-3.19,2.27-3.49c0.73-0.12,1.28-0.19,1.77-0.19 c0.74,0,1.11-0.11,1.11-0.54c0-0.43-0.43-0.55-1.29-0.55c-2.39,0-6.25,0.18-7.72,0.18c-1.65,0-5.51-0.18-8.82-0.18 c-0.86,0-1.29,0.12-1.29,0.55c0,0.43,0.37,0.54,1.05,0.54c0.86,0,1.9,0.08,2.39,0.19c2.02,0.42,2.51,1.4,2.63,3.49 c0.13,1.96,0.13,3.68,0.13,12.99v1.28c0,0.31-0.18,0.44-0.37,0.44h-23.4c-0.19,0-0.37-0.13-0.37-0.44v-1.28 c0-9.31,0-11.03,0.13-12.99c0.12-2.14,0.61-3.19,2.26-3.49c0.74-0.12,1.29-0.19,1.78-0.19c0.74,0,1.1-0.11,1.1-0.54 c0-0.43-0.43-0.55-1.29-0.55c-2.39,0-6.25,0.18-7.71,0.18c-1.66,0-5.52-0.18-8.82-0.18c-0.86,0-1.29,0.12-1.29,0.55 c0,0.43,0.37,0.54,1.04,0.54c0.86,0,1.9,0.07,2.39,0.19c2.02,0.42,2.51,1.4,2.63,3.49c0.13,1.96,0.13,3.67,0.12,12.99v10.78 c0,5.64,0,10.48-0.3,13.04c-0.25,1.78-0.55,3.12-1.78,3.38c-0.55,0.11-1.28,0.24-2.2,0.24c-0.74,0-0.98,0.19-0.98,0.49 c0,0.43,0.43,0.61,1.23,0.61c2.45,0,6.31-0.18,7.71-0.18c1.71,0,5.58,0.18,9.56,0.18c0.74,0,1.23-0.18,1.23-0.61 c0-0.31-0.3-0.49-0.98-0.5c-0.92,0-2.27-0.12-3.12-0.24c-1.84-0.25-2.2-1.6-2.39-3.31c-0.31-2.63-0.31-7.47-0.31-13.11v-5.39 c0-0.3,0.19-0.36,0.37-0.36h23.4c0.18,0,0.37,0.11,0.37,0.36l0,5.39c0,5.64,0,10.48-0.3,13.04c-0.25,1.78-0.55,3.13-1.78,3.38 c-0.55,0.12-1.29,0.24-2.21,0.24c-0.74,0-0.98,0.18-0.98,0.49c0,0.43,0.43,0.61,1.29,0.61c2.39,0,6.25-0.18,7.66-0.18 c1.71,0,5.58,0.18,9.55,0.18C251.92,76.55,252.41,76.37,252.41,75.94z"></path> <path class="st0" d="M343.97,76.55c0.86,0,1.59-0.18,1.59-0.68c0-0.36-0.43-0.43-0.99-0.43c-0.79,0-2.02-0.06-3.8-0.61 c-1.83-0.55-2.44-2.33-2.99-6.19l-5.58-37.84c-0.18-1.29-0.55-1.9-1.11-1.91c-0.55,0-0.85,0.49-1.34,1.48L313.1,65.33 l-16.72-34.53c-0.8-1.6-1.16-1.91-1.65-1.9c-0.48,0-0.85,0.55-1.04,1.59l-6.06,39.94c-0.31,2.08-0.8,4.47-2.51,4.84 c-0.93,0.18-1.35,0.18-1.84,0.18c-0.61,0-0.98,0.12-0.98,0.43c0,0.55,0.49,0.68,1.11,0.67c1.96,0,4.9-0.18,6.07-0.18 c1.1,0,3.86,0.18,6.43,0.18c0.92,0,1.47-0.12,1.47-0.67c0-0.31-0.43-0.43-0.92-0.43c-0.62,0-1.47-0.06-2.57-0.3 c-1.04-0.24-1.84-0.79-1.84-1.96c0-0.97,0.07-1.77,0.18-2.87l3.19-24.37h0.25c2.14,4.59,5.81,12.31,6.37,13.59 c0.73,1.71,5.57,11.08,7.04,13.9c0.98,1.84,1.6,3.07,2.14,3.07c0.56,0,0.86-0.55,2.27-3.43l13.36-27.8h0.24l3.68,26.95 c0.24,1.71,0.06,2.51-0.31,2.63c-0.43,0.19-0.67,0.37-0.67,0.68c0,0.36,0.37,0.54,1.77,0.67 C333.98,76.37,342.44,76.55,343.97,76.55z"></path> <path class="st0" d="M405.27,67.24c-0.43,0-0.56,0.24-0.68,0.92c-0.43,2.51-1.16,3.8-2.75,4.53c-1.59,0.74-4.17,0.74-5.76,0.74 c-6.25,0-7.23-0.92-7.35-5.15c-0.06-1.78,0-7.41,0-9.49l0-4.84c0-0.37,0.07-0.61,0.36-0.61c1.47,0,7.54,0.06,8.7,0.18 c2.26,0.24,3.12,1.16,3.42,2.39c0.19,0.8,0.19,1.59,0.25,2.21c0,0.3,0.12,0.55,0.55,0.55c0.55,0,0.55-0.68,0.55-1.17 c0-0.42,0.18-2.87,0.24-4.1c0.25-3.12,0.49-4.1,0.49-4.46c0-0.36-0.18-0.49-0.43-0.49c-0.3,0-0.55,0.3-0.98,0.8 c-0.55,0.62-1.47,0.79-2.94,0.91c-1.41,0.13-8.45,0.13-9.8,0.13c-0.36,0-0.43-0.25-0.43-0.68v-15.5c0-0.43,0.12-0.61,0.43-0.61 c1.23,0,7.66,0.13,8.69,0.25c3.06,0.36,3.68,1.1,4.11,2.21c0.31,0.73,0.36,1.77,0.36,2.2c0,0.55,0.13,0.86,0.55,0.86 c0.43,0,0.56-0.37,0.61-0.67c0.12-0.73,0.24-3.43,0.31-4.04c0.18-2.82,0.49-3.55,0.49-3.98c0-0.31-0.05-0.56-0.36-0.56 c-0.31,0-0.68,0.19-0.98,0.25c-0.49,0.12-1.47,0.25-2.63,0.37c-1.17,0.05-13.35,0.05-15.31,0.05c-0.86,0-2.27-0.05-3.86-0.12 c-1.53,0-3.31-0.06-4.96-0.06c-0.92,0-1.35,0.12-1.35,0.55c0,0.43,0.37,0.54,1.04,0.54c0.86,0,1.91,0.07,2.39,0.19 c2.02,0.42,2.52,1.4,2.63,3.49c0.12,1.96,0.12,3.67,0.12,12.99v10.78c0,5.64,0,10.48-0.3,13.04c-0.25,1.77-0.55,3.12-1.78,3.38 c-0.55,0.11-1.29,0.24-2.21,0.24c-0.73,0-0.98,0.19-0.98,0.49c0,0.43,0.43,0.61,1.23,0.61c1.23,0,2.82-0.13,4.23-0.13 c1.47-0.06,2.81-0.06,3.49-0.06c1.84,0,3.74,0.06,6.37,0.18c2.63,0.06,6,0.18,10.6,0.18c2.32,0,2.88,0,3.3-1.59 c0.31-1.22,0.8-5.39,0.8-6.8C405.76,67.72,405.76,67.24,405.27,67.24z"></path> <path class="st0" d="M489.35,52.78c0-7.28-2.88-12.36-5.94-15.56c-6.68-6.98-16.9-6.98-24.56-6.98c-3.68,0-7.53,0.18-9.43,0.18 c-1.72,0-5.58-0.18-8.82-0.18c-0.92,0-1.35,0.12-1.35,0.55c0,0.43,0.37,0.54,1.04,0.54c0.85,0,1.9,0.07,2.39,0.19 c2.02,0.42,2.51,1.4,2.63,3.49c0.13,1.96,0.12,3.67,0.12,12.99v10.78c0,5.64,0,10.48-0.3,13.04c-0.25,1.77-0.55,3.12-1.78,3.38 c-0.55,0.12-1.29,0.24-2.21,0.24c-0.73,0-0.98,0.19-0.97,0.5c0,0.43,0.43,0.61,1.23,0.61c1.22,0,2.81-0.13,4.22-0.13 c1.47-0.06,2.82-0.06,3.49-0.06c1.53,0,3.67,0.18,6,0.36c2.33,0.18,4.84,0.37,7.04,0.37c11.33,0,17.7-4.35,20.52-7.23 C486.1,66.38,489.35,60.5,489.35,52.78z M476,69.81c-3.68,3.18-7.84,4.41-14.09,4.41c-4.84,0-7.23-1.29-8.02-2.45 c-0.49-0.68-0.61-3.13-0.68-4.66c-0.06-1.16-0.12-5.88-0.12-12.37l0-7.71c0-4.84,0-10.17,0.06-12.25c0-0.68,0.19-0.98,0.73-1.23 c0.49-0.24,2.75-0.43,3.98-0.43c4.77,0,11.76,0.73,17.39,6.13c2.63,2.5,5.88,7.53,5.88,15.3C481.14,60.87,479.91,66.44,476,69.81z "></path> </g> <g> <path class="st0" d="M28.6,80.05c0-0.09,0.01-0.18,0.01-0.26H28.6V80.05z"></path> <path class="st0" d="M100.16,51.31c0,0,0-17.94,0-25.21c0-0.78,0-1.73,0-2.46l-6.58,2.98l0,18.79v5.05v37.71 c0,0,0.11,3.94-3.08,5.23c-2.67,1.08-3.5,6.49-3.5,6.49s1.85-2.7,4.32-3.42c2.47-0.72,8.84-3.78,8.84-9.37 C100.16,85.4,100.16,54.41,100.16,51.31z"></path> <path class="st0" d="M103.19,12.62c2.67-1.08,3.5-6.49,3.5-6.49s-1.85,2.7-4.32,3.42c-2.47,0.72-8.84,3.78-8.84,9.37 c0,0.91,0,2.17,0,3.63l-3.16,1.38v1.89l3.16-1.38l6.58-2.86l4.92-2.19V17.6c0,0-1.73,0.8-3.06,1.3c-1.77,0.66-1.86-1.06-1.86-1.06 S100,13.91,103.19,12.62z"></path> <path class="st0" d="M88.73,25.95c0,0.09-0.01,0.18-0.01,0.26h0.01V25.95z"></path> <path class="st0" d="M62.42,25.57C62.42,23.76,62.42,29.39,62.42,25.57L62.42,25.57z"></path> <path class="st0" d="M23.76,79.39l0-18.79l0-5.05l0-37.71c0,0-0.11-3.94,3.08-5.23c2.67-1.08,3.5-6.49,3.5-6.49 s-1.85,2.7-4.32,3.43c-2.47,0.72-8.85,3.78-8.84,9.37c0,1.67,0,32.66,0,35.76c0,0,0,17.94,0,25.21c0,0.78,0,1.73,0,2.46 L23.76,79.39z"></path> <path class="st0" d="M23.82,87.07c0-0.91,0-2.17,0-3.63l3.16-1.38v-1.89l-3.16,1.38l-6.58,2.87l-4.92,2.19v1.79 c0,0,1.73-0.8,3.06-1.3c1.77-0.66,1.86,1.06,1.86,1.06s0.11,3.94-3.08,5.23c-2.67,1.08-3.5,6.49-3.5,6.49s1.85-2.7,4.32-3.42 C17.44,95.72,23.81,92.66,23.82,87.07z"></path> <path class="st0" d="M87.88,85.37c0-4.53-3.05-8.43-7.44-10.22c5.41-0.35,7.95-3.62,7.95-8.31c0-5.53,0-9.34,0-12.36 c0-5.59-6.37-8.65-8.84-9.37c-1.68-0.49-3.06-1.89-3.78-2.74l-0.43-0.59l-0.02,0.02c-0.03-0.05-0.06-0.09-0.07-0.1 c0-0.01,0-0.02,0-0.02s-0.01,0.01-0.01,0.01c0,0-0.01-0.01-0.01-0.01s0,0.01,0,0.02c-0.15,0.21-1.94,2.71-4.3,3.4 c-2.47,0.72-8.84,3.78-8.84,9.37c0,5.59,0,13.1,0,13.1s1.74-2.92,6.58-4.47v-9.71c0,0-0.11-3.94,3.09-5.23 c0.1-0.04,0.2-0.1,0.29-0.15l0.03,0.03c0,0,2.94-1.35,6.18-0.13c0.15,0.1,0.3,0.18,0.47,0.24c3.19,1.29,3.08,5.23,3.08,5.23 l0,15.96c-0.17,1.37,0.2,4.83-3.28,4.83l-1.62,0.04c-0.61-0.08-1.24-0.12-1.88-0.12c-5.38,0-9.98,2.9-11.9,7.01L63.15,81 c-0.7,1-1.77,1.63-2.96,1.63H58c-1.27,0-2.39,0.09-3.08-0.56c0-0.27,0-0.56,0-0.9c0-5.53,0,1.9,0-1.12c0-5.59-6.38-8.65-8.84-9.37 c-2.36-0.69-4.15-3.19-4.3-3.4c0-0.01,0-0.02,0-0.02s-0.01,0.01-0.01,0.01c0,0-0.01-0.01-0.01-0.01s0,0.01,0,0.01 c0,0-0.01-0.01-0.01-0.01s0,0.01,0,0.03c-0.17,0.24-1.95,2.71-4.3,3.4c-2.43,0.71-8.64,3.69-8.84,9.11l6.57,0v-0.82 c0,0-0.11-3.94,3.08-5.23c0.09-0.04,0.18-0.09,0.26-0.14c0.39-0.17,3.3-1.31,6.43,0c0.09,0.05,0.18,0.09,0.28,0.13 c0.17,0.07,0.32,0.15,0.47,0.23c0.02,0.01,0.03,0.02,0.05,0.02l0,0c2.66,1.48,2.56,4.97,2.56,4.97v3.85l0-0.64v5.42 c0,0,0.11,3.94-3.09,5.23c-2.51,1.01-3.39,5.83-3.49,6.43c-0.11-0.67-1-5.4-3.48-6.4c-3.19-1.29-3.09-5.23-3.09-5.23v-2.39h-6.58 v1.31c0,5.59,6.38,8.65,8.84,9.37c2.33,0.68,4.11,3.13,4.29,3.39c0,0,0,0.01,0,0.01s0,0,0,0c0,0,0.01,0.01,0.01,0.01 c0,0.01,0,0.02,0,0.02s0.01-0.01,0.01-0.01c0,0,0.01,0.01,0.01,0.01s0-0.01,0-0.02c0.15-0.21,1.94-2.71,4.3-3.4 c2.47-0.72,8.84-3.79,8.84-9.37c0-1.89,0-0.31,0-0.21c0-0.04,0-0.39,0-1.41c0.63,0.95,1.58,1.56,2.64,1.56h1.99 c1.06,0,2-0.6,2.63-1.55c-0.01,0.14-0.01,0.29-0.01,0.43c0,6.22,5.75,11.26,12.85,11.26C82.12,96.64,87.88,91.59,87.88,85.37z M75.19,41.96c0.02-0.09,0.03-0.17,0.04-0.21c0,0.03,0.01,0.08,0.02,0.14L75.19,41.96z M41.76,67.37l-0.01-0.02 c0-0.01,0-0.02,0-0.03C41.76,67.34,41.76,67.36,41.76,67.37z M75.02,94.68c-3.7,0-6.7-4.17-6.7-9.31c0-5.14,3-9.31,6.7-9.31 c3.7,0,6.7,4.17,6.7,9.31C81.72,90.51,78.72,94.68,75.02,94.68z"></path> <path class="st0" d="M36.9,30.84c-5.41,0.35-7.95,3.62-7.95,8.31c0,5.53,0,9.34,0,12.36c0,5.59,6.37,8.65,8.84,9.37 c1.68,0.49,3.06,1.89,3.78,2.74l0.43,0.59l0.02-0.02c0.03,0.05,0.06,0.08,0.07,0.1c0,0.01,0,0.02,0,0.02s0.01-0.01,0.01-0.01 c0,0,0.01,0.01,0.01,0.01s0-0.01,0-0.02c0.15-0.21,1.94-2.71,4.3-3.4c2.47-0.72,8.85-3.78,8.84-9.37c0-5.59,0-13.1,0-13.1 s-1.74,2.92-6.58,4.47l0,9.71c0,0,0.11,3.94-3.09,5.23c-0.1,0.04-0.2,0.1-0.3,0.15l-0.03-0.04c0,0-2.94,1.35-6.19,0.13 c-0.15-0.09-0.3-0.18-0.47-0.24c-3.19-1.29-3.08-5.23-3.08-5.23V36.63c0.17-1.37-0.21-4.83,3.28-4.83l1.63-0.04 c0.61,0.08,1.23,0.12,1.87,0.12c5.38,0,9.99-2.9,11.91-7.02L54.19,25c0.69-1,1.76-1.63,2.96-1.63l2.19,0 c1.27,0,2.4-0.09,3.08,0.56c0,0.27,0,0.56,0,0.9c0,0.28,0,0.52,0,0.74c0,0.1,0,0.22,0,0.38c0,5.59,6.37,8.65,8.84,9.37 c2.36,0.69,4.15,3.19,4.3,3.4c0,0.01,0,0.02,0,0.02s0.01-0.01,0.01-0.01c0,0,0.01,0.01,0.01,0.01s0-0.01,0-0.01 c0,0,0.01,0.01,0.01,0.01s0-0.01,0-0.03c0.17-0.24,1.95-2.71,4.3-3.4c2.43-0.71,8.64-3.69,8.84-9.11h-6.57l0,0.82 c0,0,0.11,3.94-3.09,5.23c-0.09,0.04-0.18,0.09-0.27,0.14c-0.4,0.17-3.31,1.31-6.43-0.01c-0.09-0.05-0.18-0.09-0.27-0.13 c-0.14-0.06-0.26-0.12-0.39-0.19c-0.04-0.02-0.09-0.04-0.13-0.07l0,0c-2.66-1.48-2.56-4.97-2.56-4.97v-3.21v-0.64V18.4 c0,0-0.11-3.94,3.08-5.23c2.51-1.02,3.39-5.85,3.49-6.43c0.11,0.66,1,5.4,3.48,6.4c3.19,1.29,3.09,5.23,3.09,5.23l0,2.39h6.58 v-1.31c0-5.59-6.38-8.65-8.85-9.37c-2.33-0.68-4.11-3.13-4.3-3.39c0,0,0-0.01,0-0.01s0,0,0,0c0,0-0.01-0.01-0.01-0.01 c0-0.01,0-0.02,0-0.02s-0.01,0.01-0.01,0.01c0,0-0.01-0.01-0.01-0.01s0,0.01,0,0.02c-0.15,0.21-1.94,2.71-4.3,3.4 c-2.47,0.72-8.84,3.78-8.84,9.37c0,0.08,0,0.14,0,0.21c0,0.02,0,0.21,0,0.71c0,0.19,0,0.42,0,0.7c-0.63-0.95-1.58-1.56-2.64-1.56 h-1.99c-1.06,0-2,0.6-2.63,1.55c0.01-0.14,0.01-0.29,0.01-0.43c0-6.22-5.76-11.26-12.86-11.26c-7.1,0-12.86,5.04-12.85,11.26 C29.46,25.15,32.51,29.05,36.9,30.84z M42.15,64.04c-0.02,0.09-0.03,0.17-0.04,0.21c0-0.03-0.01-0.08-0.02-0.14L42.15,64.04z M75.57,38.62l0.01,0.02c0,0.01,0,0.02,0,0.03C75.58,38.66,75.57,38.64,75.57,38.62z M42.31,11.32c3.7,0,6.7,4.17,6.7,9.3 c0,5.14-3,9.3-6.7,9.31c-3.7,0-6.7-4.17-6.7-9.3C35.62,15.49,38.61,11.32,42.31,11.32z"></path> </g> </g> </svg> 